<?xml version="1.0" encoding="UTF-8" standalone="no"?><!DOCTYPE svg PUBLIC "-//W3C//DTD SVG 1.1//EN" "http://www.w3.org/Graphics/SVG/1.1/DTD/svg11.dtd"><svg width="100%" height="100%" viewBox="0 0 123 123" version="1.1" xmlns="http://www.w3.org/2000/svg" xmlns:xlink="http://www.w3.org/1999/xlink" xml:space="preserve" xmlns:serif="http://www.serif.com/" style="fill-rule:evenodd;clip-rule:evenodd;stroke-linejoin:round;stroke-miterlimit:2;"><path d="M2.711,43.348c-1.742,-3.853 -2.711,-8.128 -2.711,-12.628c0,-16.955 13.765,-30.72 30.72,-30.72c4.5,0 8.776,0.97 12.628,2.711c-19.371,5.968 -34.669,21.266 -40.637,40.637Zm40.637,-40.637c5.72,-1.762 11.796,-2.711 18.092,-2.711c6.296,0 12.371,0.949 18.092,2.711c-10.664,4.82 -18.092,15.554 -18.092,28.009c0,-12.455 -7.428,-23.188 -18.092,-28.009Zm36.183,-0c3.853,-1.742 8.128,-2.711 12.628,-2.711c16.955,0 30.72,13.765 30.72,30.72c0,4.5 -0.97,8.776 -2.711,12.628c-5.968,-19.371 -21.266,-34.669 -40.637,-40.637Zm40.637,40.637c1.762,5.72 2.711,11.796 2.711,18.092c0,6.296 -0.949,12.371 -2.711,18.092c-4.82,-10.664 -15.554,-18.092 -28.009,-18.092c12.455,0 23.188,-7.428 28.009,-18.092Zm0,36.183c1.742,3.853 2.711,8.128 2.711,12.628c0,16.955 -13.765,30.72 -30.72,30.72c-4.5,0 -8.776,-0.97 -12.628,-2.711c19.371,-5.968 34.669,-21.266 40.637,-40.637Zm-40.637,40.637c-5.72,1.762 -11.796,2.711 -18.092,2.711c-6.296,0 -12.371,-0.949 -18.092,-2.711c10.664,-4.82 18.092,-15.554 18.092,-28.009c0,12.455 7.428,23.188 18.092,28.009Zm-36.183,0c-3.853,1.742 -8.128,2.711 -12.628,2.711c-16.955,0 -30.72,-13.765 -30.72,-30.72c0,-4.5 0.97,-8.776 2.711,-12.628c5.968,19.371 21.266,34.669 40.637,40.637Zm-40.637,-40.637c-1.762,-5.72 -2.711,-11.796 -2.711,-18.092c0,-6.296 0.949,-12.371 2.711,-18.092c4.82,10.664 15.554,18.092 28.009,18.092c-12.455,0 -23.188,7.428 -28.009,18.092Zm58.729,-48.812c0,16.955 13.765,30.72 30.72,30.72c-16.955,0 -30.72,13.765 -30.72,30.72c0,-16.955 -13.765,-30.72 -30.72,-30.72c16.955,0 30.72,-13.765 30.72,-30.72Z" style="fill:#008080;"/></svg>